<?xml version="1.0" encoding="UTF-8" standalone="no"?>
<!-- Created with Inkscape (http://www.inkscape.org/) -->

<svg
   width="12.653632mm"
   height="10.167676mm"
   viewBox="0 0 12.653632 10.167676"
   version="1.1"
   id="svg19482"
   xmlns="http://www.w3.org/2000/svg"
   xmlns:svg="http://www.w3.org/2000/svg">
  <defs
     id="defs19479" />
  <g
     id="layer1"
     transform="translate(50.68166,-96.399993)">
    <path
       id="path5241"
       style="fill:none;fill-rule:evenodd;stroke:#ffffff;stroke-width:0.199999;stroke-linecap:butt;stroke-linejoin:miter;stroke-dasharray:none;stroke-opacity:1"
       d="m -46.617263,104.52456 0.495163,0.79546 h 3.542605 l 0.607719,-1.14672 m -7.517832,-0.3876 h -0.160414 l -0.05553,-0.10901 -0.660163,0.37246 h -0.174295 l -0.04165,-0.0818 v -4.178813 l 0.04319,-0.08479 h 0.212856 l 0.623145,0.357323 0.06787,-0.133243 h 0.144989 v 3.857833 0.82365 h 1.647321 l 0.61425,1.85836 h 0.429723 v -1.94315 h 0.826726 l 3.999812,-0.35126 h 0.749624 l 2.390776,-0.2483 0.703351,-0.87816 v -1.53829 l -0.746539,-0.79337 h -2.228287 l -0.628224,-1.180704 -3.70177,-0.05707 v -1.30902 l -0.217019,-0.426054 h -1.418935 l -0.429166,0.842542 v 0.285829 h -0.554093 l -0.152701,-0.190423 v -2.134827 l -0.02314,-0.04542 h -0.385609 l -0.283808,0.557174 v 1.623075 l -0.02468,0.04845 h -0.04936 v 0.417881 h -0.518258 v 0.781257" />
  </g>
</svg>
