<?xml version="1.0" encoding="UTF-8" standalone="no"?>
<!-- Created with Inkscape (http://www.inkscape.org/) -->

<svg
   width="12.955451mm"
   height="7.6549902mm"
   viewBox="0 0 12.955451 7.6549902"
   version="1.1"
   id="svg20724"
   xmlns="http://www.w3.org/2000/svg"
   xmlns:svg="http://www.w3.org/2000/svg">
  <defs
     id="defs20721" />
  <g
     id="layer1"
     transform="translate(76.026113,-124.62411)">
    <path
       style="fill:#ffffff;fill-opacity:1;fill-rule:evenodd;stroke:#ffffff;stroke-width:0.065;stroke-linecap:round;stroke-linejoin:round;stroke-dasharray:none;stroke-opacity:1"
       d="m -75.993613,129.32979 v -1.56818 h 0.313637 l 0.156819,0.15682 0.06273,-0.54886 0.219543,-0.15682 v -0.98795 h 2.054318 v 0.5175 l 0.227311,0.0609 0.102005,-0.34319 h 0.78409 l 0.07841,0.29796 h 0.517502 v -0.26659 h 1.06636 v -0.53318 h 0.533183 v -0.81546 h 0.282271 v -0.48613 h 0.721366 v 1.30159 l 0.501816,0.53318 h 1.035 l 0.06196,0.23123 h 0.486905 v -0.29396 h 0.580226 v -0.43909 h 1.724999 l 0.721362,0.73704 h 0.407729 v 0.53319 h 0.250909 v 0.7684 h -0.266591 v 1.01932 h 0.250902 v 0.50182 l -0.831135,0.83113 h -0.878181 l -0.172501,0.25091 h -0.658635 l -0.156819,0.36068 h -1.850453 l -0.470453,-0.62727 h -0.219546 v 1.63091 h -0.705681 l -0.156818,0.25091 h -0.423408 v -0.56455 h -0.392046 l -0.392046,-0.21954 v -1.14477 h -0.313635 v 0.37636 h -0.752726 v -0.345 h -0.50182 v 0.345 h -0.674317 l -0.250907,-0.28227 h -0.219546 v 0.5175 h -2.085681 v -1.30159 l -0.250907,-0.10978 -0.109773,-0.37636 -0.09409,0.18818 z"
       id="path20710" />
  </g>
</svg>
