<?xml version="1.0" encoding="UTF-8"?>
<!-- Created with Inkscape (http://www.inkscape.org/) -->
<svg width="15.03mm" height="16.26mm" version="1.1" viewBox="0 0 15.03 16.26" xml:space="preserve" xmlns="http://www.w3.org/2000/svg"><g transform="translate(-79.193 -176.07)"><g fill="none" stroke="#fff"><g stroke-width=".26458px"><path d="m89.324 176.2h0.59591l4.1714 5.4886v0.97227l-4.1714 5.52h-0.59591z"/><path d="m89.919 176.2v11.981"/><path d="m89.104 176.73v10.82"/><path d="m88.822 178.33v7.7468"/><path d="m88.79 179.96h-0.69v4.5164h0.65864"/><path d="m92.272 191.38v0.81545h-12.765v-1.9132l0.37636-0.12545v-1.035h0.50182v0.94091l0.25091 0.18818v0.90954l0.25091 0.21955z"/><path d="m91.017 191.38v-0.69003l0.47046-0.94088v-0.65863h-7.4018l-1.9132-2.5718 4.2655-3.4186 0.31364-0.62727-0.97227-1.3486-0.87818-0.0314-4.0459 3.0736h-0.43909l-1.0664 1.0036 2.2895 5.52v0.62727"/><path d="m79.35 185.17 2.07 2.7914 2.6659 1.1291"/><path d="m81.639 190.69h9.3777"/><path d="m81.138 184.42 0.75273 1.1291 0.37636-0.0314 2.1014-1.5368-0.87818-1.1291z"/></g><circle cx="85.168" cy="182.43" r=".73704" stroke-dashoffset="9.8" stroke-linejoin="round" stroke-miterlimit="2.2" stroke-width=".2"/><g stroke-width=".26458px"><path d="m84.149 184.98h3.9518v-0.50182"/><path d="m88.1 179.96v-0.56455h-4.14l-0.65864 0.84682-0.84682 0.62727v2.0386"/><path d="m83.772 179.71v2.2268"/><path d="m83.835 180.47h4.2341"/><path d="m85.434 183.95h2.6659"/><path d="m87.159 180.53v3.3873"/></g></g></g></svg>
