<?xml version="1.0" encoding="UTF-8" standalone="no"?>
<!-- Created with Inkscape (http://www.inkscape.org/) -->

<svg
   width="16.718618mm"
   height="14.11381mm"
   viewBox="0 0 16.718618 14.11381"
   version="1.1"
   id="svg1050"
   xmlns="http://www.w3.org/2000/svg"
   xmlns:svg="http://www.w3.org/2000/svg">
  <defs
     id="defs1047" />
  <g
     id="layer1"
     transform="translate(51.649632,-235.65277)">
    <g
       id="g491"
       style="stroke:#ffffff;stroke-width:0.4;stroke-dasharray:none;stroke-opacity:1"
       transform="translate(-61.573624,66.936303)">
      <path
         style="fill:none;fill-rule:evenodd;stroke:#ffffff;stroke-width:0.4;stroke-linecap:butt;stroke-linejoin:miter;stroke-dasharray:none;stroke-opacity:1"
         d="m 10.726353,181.98733 h 10.0834 v 0.64295 h -10.0834 z"
         id="path356" />
      <path
         style="fill:none;fill-rule:evenodd;stroke:#ffffff;stroke-width:0.4;stroke-linecap:butt;stroke-linejoin:miter;stroke-dasharray:none;stroke-opacity:1"
         d="m 11.465726,181.85504 v -1.5748 h -0.787299 v -3.60383 h -0.554435 v -4.75706 h 2.450605 v -0.82056 l 0.238407,-0.23841 h 6.004536 l 1.122318,-1.94391 h 0.596432 v 11.58109 h -0.416536 l -0.987144,-1.70979 h -0.988763 v 1.12956 h 0.564544 l 0.648599,1.12341 0.392065,0.39206 h 0.260926 v 0.55453"
         id="path405" />
      <path
         style="fill:none;fill-rule:evenodd;stroke:#ffffff;stroke-width:0.4;stroke-linecap:butt;stroke-linejoin:miter;stroke-dasharray:none;stroke-opacity:1"
         d="m 10.678427,176.67641 v -4.75706"
         id="path407" />
      <path
         style="fill:none;fill-rule:evenodd;stroke:#ffffff;stroke-width:0.4;stroke-linecap:butt;stroke-linejoin:miter;stroke-dasharray:none;stroke-opacity:1"
         d="m 12.574597,171.91935 h 1.83698 l 0.09409,4.75706 h -3.827241"
         id="path409" />
      <path
         style="fill:none;fill-rule:evenodd;stroke:#ffffff;stroke-width:0.4;stroke-linecap:butt;stroke-linejoin:miter;stroke-dasharray:none;stroke-opacity:1"
         d="m 11.243853,176.67641 v 3.60383"
         id="path411" />
      <path
         style="fill:none;fill-rule:evenodd;stroke:#ffffff;stroke-width:0.4;stroke-linecap:butt;stroke-linejoin:miter;stroke-dasharray:none;stroke-opacity:1"
         d="m 11.465726,180.28024 h 6.678121 v -0.39427"
         id="path413" />
      <path
         style="fill:none;fill-rule:evenodd;stroke:#ffffff;stroke-width:0.4;stroke-linecap:butt;stroke-linejoin:miter;stroke-dasharray:none;stroke-opacity:1"
         d="m 18.143847,178.78777 v -4.09248 L 17.56362,173.2212 16.536462,172.19404 H 14.41701"
         id="path464" />
      <path
         style="fill:none;fill-rule:evenodd;stroke:#ffffff;stroke-width:0.4;stroke-linecap:butt;stroke-linejoin:miter;stroke-dasharray:none;stroke-opacity:1"
         d="m 19.13261,178.78777 -0.518309,-1.97907 v -4.12068 l 0.203239,-1.82764"
         id="path466" />
      <path
         style="fill:none;fill-rule:evenodd;stroke:#ffffff;stroke-width:0.4;stroke-linecap:butt;stroke-linejoin:miter;stroke-dasharray:none;stroke-opacity:1"
         d="m 20.511799,172.06175 5.30045,1.95922 0.235227,-0.40772 0.344999,0.68463 0.04705,1.12688 -0.392045,0.46235 -5.378895,2.93417"
         id="path468" />
      <path
         style="fill:none;fill-rule:evenodd;stroke:#ffffff;stroke-width:0.4;stroke-linecap:butt;stroke-linejoin:miter;stroke-dasharray:none;stroke-opacity:1"
         d="m 20.53629,178.28642 5.150504,-2.84888 v -0.80498 l -5.018213,-1.8034"
         id="path470" />
      <path
         style="fill:none;fill-rule:evenodd;stroke:#ffffff;stroke-width:0.4;stroke-linecap:butt;stroke-linejoin:miter;stroke-dasharray:none;stroke-opacity:1"
         d="m 25.686794,174.63256 0.125455,-0.61159"
         id="path472" />
      <path
         style="fill:none;fill-rule:evenodd;stroke:#ffffff;stroke-width:0.4;stroke-linecap:butt;stroke-linejoin:miter;stroke-dasharray:none;stroke-opacity:1"
         d="m 25.686794,175.43754 0.360686,0.44957"
         id="path474" />
      <path
         style="fill:none;fill-rule:evenodd;stroke:#ffffff;stroke-width:0.4;stroke-linecap:butt;stroke-linejoin:miter;stroke-dasharray:none;stroke-opacity:1"
         d="m 20.472258,174.29788 2.720459,0.2249 0.408397,-0.19602 h 0.360682 v 0.88603 h -0.627272 l -0.235227,-0.19109 -0.85101,0.25124 h -1.776029"
         id="path476" />
    </g>
  </g>
</svg>
