<?xml version="1.0" encoding="UTF-8" standalone="no"?>
<!-- Created with Inkscape (http://www.inkscape.org/) -->

<svg
   width="16.39012mm"
   height="16.39012mm"
   viewBox="0 0 16.39012 16.39012"
   version="1.1"
   id="svg18654"
   xmlns="http://www.w3.org/2000/svg"
   xmlns:svg="http://www.w3.org/2000/svg">
  <defs
     id="defs18651" />
  <g
     id="layer1"
     transform="translate(44.388608,-72.708166)">
    <g
       id="g18649"
       transform="translate(97.478135,-14.598954)">
      <path
         style="fill:none;stroke:#fefefe;stroke-width:0.3;stroke-linecap:butt;stroke-linejoin:bevel;stroke-dasharray:none;stroke-dashoffset:9.8;stroke-opacity:1"
         id="path16640"
         d="m -129.70933,102.38815 -3.99372,1.07011 -3.99372,-1.07011 -2.92361,-2.923611 -1.07011,-3.993722 1.07011,-3.993721 2.92361,-2.923608 3.99372,-1.070114 3.99372,1.070115 2.92361,2.923607 1.07011,3.993722 -1.07011,3.993722 z"
         transform="matrix(1.0077133,0,0,1.0077133,1.0626571,-0.70503269)" />
      <path
         style="fill:none;stroke:#fefefe;stroke-width:0.3;stroke-linecap:butt;stroke-linejoin:bevel;stroke-dasharray:none;stroke-dashoffset:9.8;stroke-opacity:1"
         id="path16642"
         d="m -130.14182,101.5993 -3.5926,0.96263 -3.59261,-0.96263 -2.62997,-2.629971 -0.96263,-3.592605 0.96263,-3.592605 2.62997,-2.62997 3.59261,-0.962635 3.5926,0.962636 2.62997,2.629969 0.96264,3.592606 -0.96264,3.592605 z"
         transform="matrix(1.0256725,0,0,1.0256725,3.4960344,-2.3231033)" />
      <path
         id="path16644"
         style="fill:none;stroke:#fefefe;stroke-width:0.3;stroke-linejoin:bevel;stroke-dashoffset:9.8"
         transform="translate(0.03136537,0.03136237)"
         d="m -130.73881,100.60502 -2.96424,0.79427 -2.96423,-0.79427 -2.16997,-2.169968 -0.79427,-2.964235 0.79427,-2.964234 2.16997,-2.16997 2.96423,-0.794264 2.96424,0.794264 2.16997,2.16997 0.79426,2.964235 -0.79426,2.964234 z" />
      <path
         style="fill:none;stroke:#fefefe;stroke-width:0.1;stroke-linecap:butt;stroke-linejoin:bevel;stroke-dasharray:none;stroke-dashoffset:9.8;stroke-opacity:1"
         id="path16646"
         d="m -133.4355,89.236879 -0.28325,0.117327 -0.28325,-0.117327 -0.11733,-0.28325 0.11733,-0.283251 0.28325,-0.117327 0.28325,0.117327 0.11733,0.283251 z"
         transform="translate(0.04706667)" />
      <path
         style="fill:none;stroke:#fefefe;stroke-width:0.1;stroke-linecap:butt;stroke-linejoin:bevel;stroke-dasharray:none;stroke-dashoffset:9.8;stroke-opacity:1"
         id="path16646-0"
         d="m -133.4355,89.236879 -0.28325,0.117327 -0.28325,-0.117327 -0.11733,-0.28325 0.11733,-0.283251 0.28325,-0.117327 0.28325,0.117327 0.11733,0.283251 z"
         transform="translate(-4.4909283,2.0514108)" />
      <path
         style="fill:none;stroke:#fefefe;stroke-width:0.1;stroke-linecap:butt;stroke-linejoin:bevel;stroke-dasharray:none;stroke-dashoffset:9.8;stroke-opacity:1"
         id="path16646-5"
         d="m -133.4355,89.236879 -0.28325,0.117327 -0.28325,-0.117327 -0.11733,-0.28325 0.11733,-0.283251 0.28325,-0.117327 0.28325,0.117327 0.11733,0.283251 z"
         transform="translate(-6.542339,6.5485514)" />
      <path
         style="fill:none;stroke:#fefefe;stroke-width:0.1;stroke-linecap:butt;stroke-linejoin:bevel;stroke-dasharray:none;stroke-dashoffset:9.8;stroke-opacity:1"
         id="path16646-7"
         d="m -133.4355,89.236879 -0.28325,0.117327 -0.28325,-0.117327 -0.11733,-0.28325 0.11733,-0.283251 0.28325,-0.117327 0.28325,0.117327 0.11733,0.283251 z"
         transform="translate(-4.4909283,11.066534)" />
      <path
         style="fill:none;stroke:#fefefe;stroke-width:0.1;stroke-linecap:butt;stroke-linejoin:bevel;stroke-dasharray:none;stroke-dashoffset:9.8;stroke-opacity:1"
         id="path16646-2"
         d="m -133.4355,89.236879 -0.28325,0.117327 -0.28325,-0.117327 -0.11733,-0.28325 0.11733,-0.283251 0.28325,-0.117327 0.28325,0.117327 0.11733,0.283251 z"
         transform="translate(0.04706667,13.106856)" />
      <path
         style="fill:none;stroke:#fefefe;stroke-width:0.1;stroke-linecap:butt;stroke-linejoin:bevel;stroke-dasharray:none;stroke-dashoffset:9.8;stroke-opacity:1"
         id="path16646-27"
         d="m -133.4355,89.236879 -0.28325,0.117327 -0.28325,-0.117327 -0.11733,-0.28325 0.11733,-0.283251 0.28325,-0.117327 0.28325,0.117327 0.11733,0.283251 z"
         transform="translate(6.631048,6.5485514)" />
      <path
         style="fill:none;stroke:#fefefe;stroke-width:0.1;stroke-linecap:butt;stroke-linejoin:bevel;stroke-dasharray:none;stroke-dashoffset:9.8;stroke-opacity:1"
         id="path16646-1"
         d="m -133.4355,89.236879 -0.28325,0.117327 -0.28325,-0.117327 -0.11733,-0.28325 0.11733,-0.283251 0.28325,-0.117327 0.28325,0.117327 0.11733,0.283251 z"
         transform="rotate(45,-133.88857,95.547603)" />
      <path
         style="fill:none;stroke:#fefefe;stroke-width:0.1;stroke-linecap:butt;stroke-linejoin:bevel;stroke-dasharray:none;stroke-dashoffset:9.8;stroke-opacity:1"
         id="path16646-4"
         d="m -133.4355,89.236879 -0.28325,0.117327 -0.28325,-0.117327 -0.11733,-0.28325 0.11733,-0.283251 0.28325,-0.117327 0.28325,0.117327 0.11733,0.283251 z"
         transform="translate(4.6129027,11.066534)" />
      <path
         style="fill:none;stroke:#fefefe;stroke-width:0.1;stroke-linecap:butt;stroke-linejoin:bevel;stroke-dasharray:none;stroke-dashoffset:9.8;stroke-opacity:1"
         id="path16839"
         d="m -132.85445,97.703441 -1.97948,0 -1.3997,-1.3997 0,-1.979476 1.3997,-1.3997 1.97948,0 1.3997,1.3997 0,1.979476 z"
         transform="translate(0.17250917,0.18817695)" />
      <path
         id="path16916-1"
         style="fill:#ffffff;fill-opacity:1;fill-rule:evenodd;stroke:#ffffff;stroke-width:0.05;stroke-linecap:round;stroke-linejoin:bevel;stroke-dasharray:none;stroke-opacity:1"
         d="m -131.89818,96.235469 v -1.466588 l 0.16965,-0.07423 -0.78202,0.323924 v 0.967211 l 0.78202,0.323924 m -3.72305,-0.07424 v -1.466588 l -0.16965,-0.07423 0.78202,0.323924 v 0.967211 l -0.78202,0.323924 m 1.46594,1.142017 v -0.782024 h 0.96722 v 0.782024 m 0,-3.899101 v 0.782024 h -0.96722 v -0.782024 m 0,3.117077 -0.32392,0.782024 m 0.32392,-0.782021 -0.68392,-0.683922 -0.78202,0.323924 1.14201,1.14202 m 1.29115,-0.782025 0.32392,0.782024 m -0.32393,-0.782021 0.68393,-0.683922 0.78202,0.323924 -1.14202,1.14202 m -1.29114,-3.117078 -0.32392,-0.782024 m 0.32392,0.782024 -0.68392,0.683922 -0.78202,-0.323924 1.14201,-1.14202 m 1.97507,1.465944 v 0.967212 m -0.68393,0.683922 h -0.96721 m 0,-2.335056 h 0.96721 m 1.46595,0.359998 v 1.61506 m -1.14202,1.14202 h -1.61507 m -1.14201,-1.14202 v -1.61506 m 1.14201,-1.14202 h 1.61507 m -0.32392,0.782022 0.32392,-0.782024 m -0.32393,0.782024 0.68393,0.683922 0.78202,-0.323924 -1.14202,-1.14202" />
      <path
         id="path17811"
         style="fill:none;stroke:#ffffff;stroke-width:0.0499999;stroke-linecap:round;stroke-linejoin:bevel;stroke-dashoffset:9.8"
         d="m -133.37012,96.230209 h -0.60312 l -0.42646,-0.426468 v -0.603118 l 0.42646,-0.426468 h 0.60312 l 0.42647,0.426468 v 0.603118 z" />
      <path
         style="fill:none;fill-rule:evenodd;stroke:#ffffff;stroke-width:0.065;stroke-linecap:butt;stroke-linejoin:bevel;stroke-dasharray:none;stroke-opacity:1"
         d="m -134.18647,94.987387 -0.31078,-0.310777"
         id="path18543" />
      <path
         style="fill:none;fill-rule:evenodd;stroke:#ffffff;stroke-width:0.065;stroke-linecap:butt;stroke-linejoin:bevel;stroke-dasharray:none;stroke-opacity:1"
         d="m -133.15688,94.987387 0.31077,-0.310777"
         id="path18545" />
      <path
         style="fill:none;fill-rule:evenodd;stroke:#ffffff;stroke-width:0.065;stroke-linecap:butt;stroke-linejoin:bevel;stroke-dasharray:none;stroke-opacity:1"
         d="m -133.15688,96.016973 0.31077,0.310772"
         id="path18547" />
      <path
         style="fill:none;fill-rule:evenodd;stroke:#ffffff;stroke-width:0.065;stroke-linecap:butt;stroke-linejoin:bevel;stroke-dasharray:none;stroke-opacity:1"
         d="m -134.18647,96.016973 -0.31078,0.310772"
         id="path18549" />
      <path
         style="fill:none;fill-rule:evenodd;stroke:#ffffff;stroke-width:0.065;stroke-linecap:butt;stroke-linejoin:bevel;stroke-dasharray:none;stroke-opacity:1"
         d="m -134.83921,95.018576 0.43951,0.182046"
         id="path18551" />
      <path
         style="fill:none;fill-rule:evenodd;stroke:#ffffff;stroke-width:0.065;stroke-linecap:butt;stroke-linejoin:bevel;stroke-dasharray:none;stroke-opacity:1"
         d="m -134.83921,95.985787 0.43951,-0.182047"
         id="path18553" />
      <path
         style="fill:none;fill-rule:evenodd;stroke:#ffffff;stroke-width:0.065;stroke-linecap:butt;stroke-linejoin:bevel;stroke-dasharray:none;stroke-opacity:1"
         d="m -133.67168,96.230209 v 0.439494"
         id="path18555" />
      <path
         style="fill:none;fill-rule:evenodd;stroke:#ffffff;stroke-width:0.065;stroke-linecap:butt;stroke-linejoin:bevel;stroke-dasharray:none;stroke-opacity:1"
         d="m -132.94365,95.80374 0.4331,0.182044"
         id="path18557" />
      <path
         style="fill:none;fill-rule:evenodd;stroke:#ffffff;stroke-width:0.065;stroke-linecap:butt;stroke-linejoin:bevel;stroke-dasharray:none;stroke-opacity:1"
         d="m -132.94365,95.200622 0.4331,-0.182049"
         id="path18559" />
      <path
         style="fill:none;fill-rule:evenodd;stroke:#ffffff;stroke-width:0.065;stroke-linecap:butt;stroke-linejoin:bevel;stroke-dasharray:none;stroke-opacity:1"
         d="m -133.67168,94.334649 v 0.439505"
         id="path18561" />
      <path
         style="fill:none;fill-rule:evenodd;stroke:#ffffff;stroke-width:0.264583px;stroke-linecap:butt;stroke-linejoin:miter;stroke-opacity:1"
         d="m -134.25268,93.062741 v -0.566062 l 1.162,-0.0083 v 0.624329"
         id="path18575" />
      <path
         style="fill:none;fill-rule:evenodd;stroke:#ffffff;stroke-width:0.264583px;stroke-linecap:butt;stroke-linejoin:miter;stroke-opacity:1"
         d="m -133.67168,89.57371 v 2.91818"
         id="path18577" />
      <path
         style="fill:none;fill-rule:evenodd;stroke:#ffffff;stroke-width:0.155;stroke-linecap:butt;stroke-linejoin:bevel;stroke-dasharray:none;stroke-opacity:1"
         d="m -134.11845,93.070487 0.44677,-0.57796 0.40436,0.57796"
         id="path18579" />
      <path
         style="fill:none;fill-rule:evenodd;stroke:#ffffff;stroke-width:0.165;stroke-linecap:butt;stroke-linejoin:miter;stroke-dasharray:none;stroke-opacity:1"
         d="m -134.47583,97.899991 0.5905,0.876978 h 0.4268 l 0.5905,-0.885352"
         id="path18581" />
      <path
         style="fill:none;fill-rule:evenodd;stroke:#ffffff;stroke-width:0.264583px;stroke-linecap:butt;stroke-linejoin:miter;stroke-opacity:1"
         d="M -133.67168,101.43065 V 98.776969"
         id="path18583" />
      <path
         style="fill:#ffffff;fill-opacity:1;fill-rule:evenodd;stroke:#ffffff;stroke-width:0.065;stroke-linecap:butt;stroke-linejoin:miter;stroke-dasharray:none;stroke-opacity:1"
         d="m -136.06112,96.349673 h -0.29851 l -0.6594,-0.659392 v -0.423746 l 0.34107,-0.467156 h 0.40101 l 0.22324,0.189169 z"
         id="path18585" />
      <path
         style="fill:none;fill-rule:evenodd;stroke:#ffffff;stroke-width:0.165;stroke-linecap:butt;stroke-linejoin:miter;stroke-dasharray:none;stroke-opacity:1"
         d="m -139.60015,95.502178 h 2.58112"
         id="path18587" />
      <path
         style="fill:#ffffff;fill-opacity:1;fill-rule:evenodd;stroke:#ffffff;stroke-width:0.065;stroke-linecap:butt;stroke-linejoin:miter;stroke-dasharray:none;stroke-opacity:1"
         d="m -131.25072,96.347607 h 0.29851 l 0.6594,-0.659392 v -0.423746 l -0.34107,-0.467156 h -0.40101 l -0.22324,0.189169 z"
         id="path18585-1" />
      <path
         style="fill:none;fill-rule:evenodd;stroke:#ffffff;stroke-width:0.165;stroke-linecap:butt;stroke-linejoin:miter;stroke-dasharray:none;stroke-opacity:1"
         d="m -127.71169,95.500112 h -2.58112"
         id="path18587-3" />
    </g>
  </g>
</svg>
