<?xml version="1.0" encoding="UTF-8" standalone="no"?>
<!-- Created with Inkscape (http://www.inkscape.org/) -->

<svg
   width="15.879838mm"
   height="16.234676mm"
   viewBox="0 0 15.879838 16.234676"
   version="1.1"
   id="svg10019"
   xmlns="http://www.w3.org/2000/svg"
   xmlns:svg="http://www.w3.org/2000/svg">
  <defs
     id="defs10016" />
  <g
     id="layer1"
     transform="translate(55.488306,-98.334275)">
    <g
       id="g10014"
       transform="translate(-30.183467,5.9657244)"
       style="stroke-width:0.4;stroke-dasharray:none">
      <rect
         style="fill:none;stroke:#ffffff;stroke-width:0.4;stroke-dasharray:none;stroke-dashoffset:9.8;stroke-opacity:1"
         id="rect9031"
         width="15.479838"
         height="15.834677"
         x="-25.104839"
         y="92.56855" />
      <rect
         style="fill:none;stroke:#ffffff;stroke-width:0.4;stroke-dasharray:none;stroke-dashoffset:9.8;stroke-opacity:1"
         id="rect9031-1"
         width="13.872722"
         height="14.190721"
         x="-24.301281"
         y="93.390526" />
      <path
         style="fill:none;fill-rule:evenodd;stroke:#ffffff;stroke-width:0.4;stroke-linecap:butt;stroke-linejoin:miter;stroke-dasharray:none;stroke-opacity:1"
         d="m -25.10484,92.568547 0.803559,0.821978"
         id="path9470" />
      <path
         style="fill:none;fill-rule:evenodd;stroke:#ffffff;stroke-width:0.4;stroke-linecap:butt;stroke-linejoin:miter;stroke-dasharray:none;stroke-opacity:1"
         d="m -9.625001,92.568547 -0.803558,0.821978"
         id="path9472" />
      <path
         style="fill:none;fill-rule:evenodd;stroke:#ffffff;stroke-width:0.4;stroke-linecap:butt;stroke-linejoin:miter;stroke-dasharray:none;stroke-opacity:1"
         d="m -9.625001,108.40322 -0.803558,-0.82198"
         id="path9474" />
      <path
         style="fill:none;fill-rule:evenodd;stroke:#ffffff;stroke-width:0.4;stroke-linecap:butt;stroke-linejoin:miter;stroke-dasharray:none;stroke-opacity:1"
         d="m -25.10484,108.40322 0.803559,-0.82198"
         id="path9476" />
      <path
         style="fill:none;fill-rule:evenodd;stroke:#ffffff;stroke-width:0.4;stroke-linecap:butt;stroke-linejoin:miter;stroke-dasharray:none;stroke-opacity:1"
         d="m -22.665323,93.987905 h 10.64516 l 0.465728,0.51008 v 11.975795 l -0.465728,0.43246 h -10.64516 l -0.526714,-0.43246 V 94.497985 Z"
         id="path9478" />
      <path
         style="fill:none;fill-rule:evenodd;stroke:#ffffff;stroke-width:0.4;stroke-linecap:butt;stroke-linejoin:miter;stroke-dasharray:none;stroke-opacity:1"
         d="m -21.35547,96.649195 1.539944,-1.65222 h 4.867944 l 1.613408,1.65222 v 7.584665 l -1.613408,1.81578 h -4.867944 l -1.539944,-1.81578 z"
         id="path9480" />
      <path
         id="path9484"
         style="fill:#ffffff;fill-opacity:1;fill-rule:evenodd;stroke:#ffffff;stroke-width:0.4;stroke-linecap:butt;stroke-linejoin:miter;stroke-dasharray:none;stroke-opacity:1"
         d="m -13.239921,94.985885 h 2.506049 v 1.64113 h -2.506049 z m 0.266128,0.79839 0.576615,-0.64315 h 0.95363 l 0.554434,0.64315 -0.554434,0.66532 h -0.95363 z" />
      <path
         id="path9484-0"
         style="fill:#ffffff;fill-opacity:1;fill-rule:evenodd;stroke:#ffffff;stroke-width:0.4;stroke-linecap:butt;stroke-linejoin:miter;stroke-dasharray:none;stroke-opacity:1"
         d="m -13.239921,104.25605 h 2.506049 v 1.64113 h -2.506049 z m 0.266128,0.79839 0.576615,-0.64315 h 0.95363 l 0.554434,0.64315 -0.554434,0.66532 h -0.95363 z" />
      <path
         id="path9484-2"
         style="fill:#ffffff;fill-opacity:1;fill-rule:evenodd;stroke:#ffffff;stroke-width:0.4;stroke-linecap:butt;stroke-linejoin:miter;stroke-dasharray:none;stroke-opacity:1"
         d="m -23.98488,104.25605 h 2.506049 v 1.64113 h -2.506049 z m 0.266128,0.79839 0.576615,-0.64315 h 0.95363 l 0.554434,0.64315 -0.554434,0.66532 h -0.95363 z" />
      <path
         id="path9484-01"
         style="fill:#ffffff;fill-opacity:1;fill-rule:evenodd;stroke:#ffffff;stroke-width:0.4;stroke-linecap:butt;stroke-linejoin:miter;stroke-dasharray:none;stroke-opacity:1"
         d="m -23.98488,94.985885 h 2.506049 v 1.64113 h -2.506049 z m 0.266128,0.79839 0.576615,-0.64315 h 0.95363 l 0.554434,0.64315 -0.554434,0.66532 h -0.95363 z" />
      <path
         style="fill:none;fill-rule:evenodd;stroke:#ffffff;stroke-width:0.4;stroke-linecap:butt;stroke-linejoin:miter;stroke-dasharray:none;stroke-opacity:1"
         d="m -20.831052,96.888805 h 2.477725 v -1.23887 c 0.02191,-0.65296 1.975908,-0.66285 1.975908,0 v 1.23887 h 2.43068 v 7.197945 h -2.352272 v 1.19181 c -0.01251,0.77108 -2.022949,0.77108 -2.022949,0 v -1.19181 h -2.540456 z"
         id="path9535" />
      <path
         style="fill:none;fill-rule:evenodd;stroke:#ffffff;stroke-width:0.4;stroke-linecap:butt;stroke-linejoin:miter;stroke-dasharray:none;stroke-opacity:1"
         d="m -20.837886,98.457085 h 6.891146"
         id="path9537" />
      <path
         style="fill:none;fill-rule:evenodd;stroke:#ffffff;stroke-width:0.4;stroke-linecap:butt;stroke-linejoin:miter;stroke-dasharray:none;stroke-opacity:1"
         d="m -20.837886,102.70675 h 6.891146"
         id="path9539" />
      <path
         style="fill:none;fill-rule:evenodd;stroke:#ffffff;stroke-width:0.4;stroke-linecap:butt;stroke-linejoin:miter;stroke-dasharray:none;stroke-opacity:1"
         d="m -18.299354,98.409935 0.564544,-0.61159 v -2.07 h 0.674317 v 2.07 l 0.548865,0.61159"
         id="path9543" />
      <path
         style="fill:none;fill-rule:evenodd;stroke:#ffffff;stroke-width:0.4;stroke-linecap:butt;stroke-linejoin:miter;stroke-dasharray:none;stroke-opacity:1"
         d="m -18.299354,102.67761 0.564544,0.61159 v 2.07 h 0.674317 v -2.07 l 0.548865,-0.61159"
         id="path9543-4" />
      <path
         style="fill:none;fill-rule:evenodd;stroke:#ffffff;stroke-width:0.4;stroke-linecap:butt;stroke-linejoin:miter;stroke-dasharray:none;stroke-opacity:1"
         d="m -20.28219,98.499665 v 4.207085"
         id="path9567" />
      <path
         style="fill:none;fill-rule:evenodd;stroke:#ffffff;stroke-width:0.4;stroke-linecap:butt;stroke-linejoin:miter;stroke-dasharray:none;stroke-opacity:1"
         d="m -14.71515,98.457085 v 4.249665"
         id="path9569" />
      <path
         id="path9573"
         style="fill:#ffffff;fill-opacity:1;fill-rule:evenodd;stroke:#ffffff;stroke-width:0.4;stroke-linecap:butt;stroke-linejoin:miter;stroke-dasharray:none;stroke-opacity:1"
         d="m -18.008348,100.27607 0.36068,-0.360675 h 0.564544 l 0.345001,0.360675 v 0.31363 l -0.345001,0.345 h -0.564544 l -0.36068,-0.345 z m -0.0196,-1.787725 v 0.53318 l -0.77625,0.72137 v 1.474075 l 0.77625,0.69001 v 0.73704 h 1.39568 v -0.73704 l 0.689998,-0.69001 v -1.474075 l -0.689998,-0.72137 v -0.53318 z" />
      <path
         style="fill:none;fill-rule:evenodd;stroke:#ffffff;stroke-width:0.4;stroke-linecap:butt;stroke-linejoin:miter;stroke-dasharray:none;stroke-opacity:1"
         d="m -17.734811,95.728345 -0.348459,-0.34846"
         id="path9639" />
      <path
         style="fill:none;fill-rule:evenodd;stroke:#ffffff;stroke-width:0.4;stroke-linecap:butt;stroke-linejoin:miter;stroke-dasharray:none;stroke-opacity:1"
         d="m -17.060494,95.728345 0.365056,-0.36506"
         id="path9641" />
      <path
         style="fill:none;fill-rule:evenodd;stroke:#ffffff;stroke-width:0.4;stroke-linecap:butt;stroke-linejoin:miter;stroke-dasharray:none;stroke-opacity:1"
         d="m -17.734811,105.3592 -0.308144,0.30814"
         id="path9643" />
      <path
         style="fill:none;fill-rule:evenodd;stroke:#ffffff;stroke-width:0.4;stroke-linecap:butt;stroke-linejoin:miter;stroke-dasharray:none;stroke-opacity:1"
         d="m -17.060494,105.3592 0.380767,0.38077"
         id="path9645" />
    </g>
  </g>
</svg>
