<?xml version="1.0" encoding="UTF-8" standalone="no"?>
<!-- Created with Inkscape (http://www.inkscape.org/) -->

<svg
   width="16.723022mm"
   height="2.6276295mm"
   viewBox="0 0 16.723022 2.6276295"
   version="1.1"
   id="svg47361"
   inkscape:version="1.2.1 (9c6d41e410, 2022-07-14)"
   sodipodi:docname="sgm-h-2.svg"
   xmlns:inkscape="http://www.inkscape.org/namespaces/inkscape"
   xmlns:sodipodi="http://sodipodi.sourceforge.net/DTD/sodipodi-0.dtd"
   xmlns="http://www.w3.org/2000/svg"
   xmlns:svg="http://www.w3.org/2000/svg">
  <sodipodi:namedview
     id="namedview47363"
     pagecolor="#ffffff"
     bordercolor="#666666"
     borderopacity="1.0"
     inkscape:showpageshadow="2"
     inkscape:pageopacity="0.0"
     inkscape:pagecheckerboard="0"
     inkscape:deskcolor="#d1d1d1"
     inkscape:document-units="mm"
     showgrid="false"
     inkscape:zoom="2.1089995"
     inkscape:cx="-11.142724"
     inkscape:cy="38.406836"
     inkscape:window-width="1920"
     inkscape:window-height="1017"
     inkscape:window-x="-8"
     inkscape:window-y="-8"
     inkscape:window-maximized="1"
     inkscape:current-layer="layer1" />
  <defs
     id="defs47358" />
  <g
     inkscape:label="Layer 1"
     inkscape:groupmode="layer"
     id="layer1"
     transform="translate(-59.41268,-106.20231)">
    <path
       style="fill:none;fill-rule:evenodd;stroke:#ffffff;stroke-width:0.444;stroke-linecap:round;stroke-linejoin:miter;stroke-dasharray:none;stroke-opacity:1"
       d="m 61.44791,107.52166 h 1.88181"
       id="path44809" />
    <path
       style="fill:none;fill-rule:evenodd;stroke:#ffffff;stroke-width:0.444;stroke-linecap:butt;stroke-linejoin:miter;stroke-dasharray:none;stroke-opacity:1"
       d="M 69.26661,107.35052 H 70.3533"
       id="path44811" />
    <path
       style="fill:none;fill-rule:evenodd;stroke:#ffffff;stroke-width:0.444;stroke-linecap:butt;stroke-linejoin:miter;stroke-dasharray:none;stroke-opacity:1"
       d="m 69.24443,107.74971 h 1.08669"
       id="path44813" />
    <path
       id="path44919"
       style="fill:none;fill-rule:evenodd;stroke:#ffffff;stroke-width:0.444;stroke-linecap:butt;stroke-linejoin:miter;stroke-dasharray:none;stroke-opacity:1"
       d="m 74.16828,106.8222 v 1.52114 m -7.92174,-1.47772 v 1.39568 m 1.035,-1.48977 v 1.52114 m 1.94454,-1.50546 v 1.52114 m 1.56818,-1.53682 v 1.56818 m -0.45477,-1.61522 v 1.66227 m 2.11704,-1.56818 v 1.45841 m 0.62728,-1.52114 v 1.5525 m -10.21145,-1.63681 -0.35596,0.1662 -3e-5,1.33597 0.35597,0.16622 m 5.1e-4,2.1e-4 0.0892,0.0417 h 0.3552 l 0.074,-0.074 v -1.604 l -0.074,-0.074 h -0.3552 l -0.0892,0.0418 m 0.61654,0.13556 h 2.76109 l 0.29093,-0.29093 0.27459,0.27459 h 7.34717 c 0.74091,-0.008 1.48688,0.42976 1.75022,0.73128 l 4e-5,0.0122 c -0.26335,0.30151 -1.00932,0.7815 -1.75022,0.7735 h -7.32076 l -0.28012,0.2379 -0.31579,-0.2379 h -2.83841 m -0.53528,-1.6362 h -1.18042 l -0.35322,0.16543 h -1.08312 l -0.62141,0.16651 v 0.97545 l 0.54674,0.17123 h 1.16119 l 0.34987,0.19016 h 1.18037" />
    <path
       style="fill:#198097;fill-opacity:1;stroke:none;stroke-width:0.0131579;stroke-linecap:round;stroke-linejoin:miter;stroke-miterlimit:4;stroke-dasharray:none;stroke-dashoffset:9.8;stroke-opacity:1"
       d="m 74.305492,107.54823 v -0.61868 l 0.03331,0.004 c 0.331787,0.0364 0.625554,0.12667 0.930036,0.28569 0.161079,0.0841 0.298001,0.17389 0.415211,0.2722 l 0.04167,0.035 -0.02593,0.0272 c -0.04355,0.0456 -0.22561,0.17851 -0.336656,0.24584 -0.312923,0.18976 -0.638493,0.31186 -0.949352,0.35605 -0.04442,0.006 -0.08694,0.0115 -0.09451,0.0116 -0.01296,1.3e-4 -0.01376,-0.0345 -0.01376,-0.61854 z"
       id="path44922" />
    <path
       style="fill:#198097;fill-opacity:1;stroke:none;stroke-width:0.0744323;stroke-linecap:round;stroke-linejoin:miter;stroke-miterlimit:4;stroke-dasharray:none;stroke-dashoffset:9.8;stroke-opacity:1"
       d="m 72.626484,107.55011 v -0.62096 h 0.155241 0.155237 v 0.62096 0.62097 h -0.155237 -0.155241 z"
       id="path47339" />
    <path
       style="fill:#198097;fill-opacity:1;stroke:none;stroke-width:0.0744323;stroke-linecap:round;stroke-linejoin:miter;stroke-miterlimit:4;stroke-dasharray:none;stroke-dashoffset:9.8;stroke-opacity:1"
       d="m 70.49745,107.55011 c 0,-0.5224 0.01056,-0.62096 0.06653,-0.62096 0.05597,0 0.06653,0.0986 0.06653,0.62096 0,0.52241 -0.01056,0.62097 -0.06653,0.62097 -0.05597,0 -0.06653,-0.0986 -0.06653,-0.62097 z"
       id="path47341" />
  </g>
</svg>
